<svg width="16" height="13" viewBox="0 0 16 13" fill="none" xmlns="http://www.w3.org/2000/svg">
<path d="M15.6572 6.49707C15.6572 6.26855 15.5693 6.05762 15.3936 5.89062L9.90039 0.40625C9.70703 0.22168 9.51367 0.142578 9.30273 0.142578C8.85449 0.142578 8.51172 0.467773 8.51172 0.916016C8.51172 1.13574 8.59082 1.33789 8.74023 1.47852L10.6035 3.37695L13.2666 5.81152L11.2891 5.68848H0.917969C0.452148 5.68848 0.118164 6.02246 0.118164 6.49707C0.118164 6.96289 0.452148 7.29688 0.917969 7.29688H11.2891L13.2754 7.17383L10.6035 9.6084L8.74023 11.5068C8.59961 11.6475 8.51172 11.8496 8.51172 12.0693C8.51172 12.5176 8.85449 12.8428 9.30273 12.8428C9.51367 12.8428 9.69824 12.7637 9.88281 12.5967L15.3936 7.09473C15.5693 6.92773 15.6572 6.7168 15.6572 6.49707Z" fill="white"/>
</svg>
