
<svg width="56" height="56" viewBox="0 0 56 56" fill="none" xmlns="http://www.w3.org/2000/svg">
<g clip-path="url(#clip0)">
<path d="M27.9998 1.52588e-05L52.7471 14V42L27.9998 56L3.25244 42V14L27.9998 1.52588e-05Z" fill="white"/>
<path d="M48.3283 41.034L28.817 52.0706V43.4746L40.9736 36.7873L48.3283 41.034ZM49.663 39.8253V16.744L42.523 20.8647V35.7L49.663 39.8253ZM7.59297 41.034L27.1043 52.0706V43.4746L14.9476 36.7873L7.59297 41.034ZM6.2583 39.8253V16.744L13.3983 20.8647V35.7L6.2583 39.8253ZM7.09363 15.2507L27.1043 3.92934V12.2407L14.285 19.292L14.187 19.348L7.09363 15.2507ZM48.8276 15.2507L28.817 3.92934V12.2407L41.6363 19.292L41.7343 19.348L48.8276 15.2507Z" fill="#8ED6FB"/>
<path d="M27.1042 41.5193L15.1108 34.9253V21.8587L27.1042 28.784V41.5193ZM28.8168 41.5193L40.8102 34.9253V21.8587L28.8168 28.784V41.5193ZM15.9228 20.3467L27.9628 13.7247L40.0028 20.3467L27.9628 27.3L15.9228 20.3467Z" fill="#1C78C0"/>
</g>
<defs>
<clipPath id="clip0">
<rect width="56" height="56" fill="white"/>
</clipPath>
</defs>
</svg>
