<svg viewBox="0 0 16 16" fill="none" xmlns="http://www.w3.org/2000/svg">
    <g clip-path="url(#clip0_8_5897)">
        <path d="M7.9998 14.7996V6.39961M7.9998 14.7996C9.53653 14.7996 10.9046 13.8969 11.7831 12.4926M7.9998 14.7996C6.46307 14.7996 5.09501 13.8969 4.21647 12.4926M7.9998 6.39961C7.3998 6.39961 5.5398 6.34223 4.0998 5.30107M7.9998 6.39961C8.5998 6.39961 10.4598 6.33961 11.8998 5.30107M4.0998 5.30107C3.83507 5.76136 3.6212 6.27044 3.46848 6.81544M4.0998 5.30107C4.60585 4.4212 5.29774 3.71956 6.10366 3.28593M11.8998 5.30107C12.1645 5.76136 12.3784 6.27044 12.5311 6.81544M11.8998 5.30107C11.3938 4.4212 10.7019 3.71956 9.89595 3.28593M11.7831 12.4926L13.9998 14.1996M11.7831 12.4926C12.2322 11.7748 12.5534 10.926 12.7038 9.99961M12.7038 9.99961C12.7668 9.61188 12.7998 9.21057 12.7998 8.79961C12.7998 8.10425 12.7052 7.43652 12.5311 6.81544M12.7038 9.99961H15.1998M12.5311 6.81544L14.5998 5.79961M3.46848 6.81544C3.29444 7.43652 3.1998 8.10425 3.1998 8.79961C3.1998 9.21057 3.23286 9.61188 3.29582 9.99961M3.46848 6.81544L1.3998 5.79961M4.3998 1.59961L6.10366 3.28593M6.10366 3.28593C6.68531 2.97297 7.32636 2.79961 7.9998 2.79961C8.67325 2.79961 9.3143 2.97297 9.89595 3.28593M11.5998 1.59961L9.89595 3.28593M0.799805 9.99961C1.63181 9.99961 3.29582 9.99961 3.29582 9.99961M3.29582 9.99961C3.44625 10.926 3.76742 11.7748 4.21647 12.4926M1.9998 14.1996L4.21647 12.4926"
              stroke="currentColor" stroke-width="1.5" stroke-linecap="round"/>
    </g>
    <defs>
        <clipPath id="clip0_8_5897">
            <rect width="16" height="16" fill="currentColor"/>
        </clipPath>
    </defs>
</svg>
