<svg viewBox="0 0 24 24" fill="none" xmlns="http://www.w3.org/2000/svg">
    <g clip-path="url(#clip0_5_4242)">
        <path opacity="0.5"
              d="M5.60001 4H15.2C15.7601 4 16.0401 4 16.254 4.10899C16.4422 4.20487 16.5951 4.35785 16.691 4.54601C16.8 4.75992 16.8 5.03995 16.8 5.6V15.2C16.8 15.7601 16.8 16.0401 16.691 16.254C16.5951 16.4422 16.4422 16.5951 16.254 16.691C16.0401 16.8 15.7601 16.8 15.2 16.8H5.60008C5.04003 16.8 4.76001 16.8 4.5461 16.691C4.35793 16.5951 4.20495 16.4422 4.10908 16.254C4.00009 16.0401 4.00008 15.7601 4.00008 15.2L4.00001 5.60001C4.00001 5.03996 4.00001 4.75993 4.109 4.54601C4.20487 4.35785 4.35785 4.20487 4.54601 4.10899C4.75993 4 5.03996 4 5.60001 4Z"
              fill="currentColor"/>
        <path fill-rule="evenodd" clip-rule="evenodd"
              d="M7.20022 8.80002C7.20021 8.23996 7.20021 7.95993 7.3092 7.74602C7.40507 7.55785 7.55805 7.40487 7.74622 7.30899C7.96013 7.2 8.24016 7.2 8.80022 7.2H18.4002C18.9602 7.2 19.2403 7.2 19.4542 7.30899C19.6423 7.40486 19.7953 7.55784 19.8912 7.74601C20.0002 7.95992 20.0002 8.23994 20.0002 8.8V18.4C20.0002 18.96 20.0002 19.2401 19.8912 19.454C19.7953 19.6421 19.6423 19.7951 19.4542 19.891C19.2403 20 18.9602 20 18.4002 20H8.80035C8.24031 20 7.96028 20 7.74637 19.891C7.55821 19.7951 7.40523 19.6422 7.30936 19.454C7.20036 19.2401 7.20036 18.9601 7.20035 18.4L7.20022 8.80002Z"
              fill="currentColor"/>
    </g>
    <defs>
        <clipPath id="clip0_5_4242">
            <rect width="24" height="24" fill="white"/>
        </clipPath>
    </defs>
</svg>
