<svg viewBox="0 0 24 24" fill="none" xmlns="http://www.w3.org/2000/svg">
  <path d="M12 12V7.5" stroke="currentColor" stroke-width="2" stroke-linecap="round" stroke-linejoin="round"/>
  <path
      d="M11.999 15.5C11.861 15.5 11.749 15.612 11.75 15.75C11.75 15.888 11.862 16 12 16C12.138 16 12.25 15.888 12.25 15.75C12.25 15.612 12.138 15.5 11.999 15.5"
      stroke="currentColor" stroke-width="2" stroke-linecap="round" stroke-linejoin="round"/>
  <path fill-rule="evenodd" clip-rule="evenodd"
        d="M3 14.381V9.61899C3 8.01699 3.852 6.53599 5.236 5.72999L9.736 3.11099C11.135 2.29699 12.864 2.29699 14.263 3.11099L18.763 5.72999C20.148 6.53599 21 8.01699 21 9.61899V14.381C21 15.983 20.148 17.464 18.764 18.27L14.264 20.889C12.865 21.703 11.136 21.703 9.737 20.889L5.237 18.27C3.852 17.464 3 15.983 3 14.381Z"
        stroke="currentColor" stroke-width="2" stroke-linecap="round" stroke-linejoin="round"/>
</svg>
