<svg width="26" height="25" viewBox="0 0 26 25" fill="none" xmlns="http://www.w3.org/2000/svg">
<path d="M13.3969 0C6.43922 0 0.796875 5.6644 0.796875 12.652C0.796875 18.2408 4.40722 22.9821 9.41634 24.6565C10.0464 24.7731 10.2764 24.3824 10.2764 24.0469C10.2764 23.7461 10.2654 22.9506 10.2591 21.8952C6.75426 22.6592 6.01392 20.1987 6.01392 20.1987C5.44213 18.7369 4.61515 18.3479 4.61515 18.3479C3.46998 17.5634 4.70021 17.5792 4.70021 17.5792C5.96509 17.669 6.62982 18.8834 6.62982 18.8834C7.75451 20.8162 9.58016 20.2586 10.2985 19.9341C10.4119 19.1166 10.7379 18.559 11.0987 18.2423C8.30111 17.9226 5.35864 16.8373 5.35864 11.9904C5.35864 10.6089 5.8501 9.47952 6.6566 8.59426C6.52586 8.2745 6.09426 6.98757 6.77947 5.24697C6.77947 5.24697 7.838 4.90673 10.2449 6.54336C11.2499 6.26298 12.3273 6.12278 13.4 6.11806C14.4696 6.12436 15.5486 6.26298 16.5551 6.54494C18.9605 4.90831 20.0174 5.24855 20.0174 5.24855C20.7042 6.99072 20.2726 8.27608 20.1434 8.59584C20.9515 9.4811 21.4382 10.6105 21.4382 11.992C21.4382 16.8514 18.4926 17.921 15.6856 18.2345C16.1377 18.6251 16.541 19.397 16.541 20.5768C16.541 22.2685 16.5252 23.6327 16.5252 24.0469C16.5252 24.3856 16.752 24.7794 17.3916 24.655C22.3928 22.9789 26 18.2392 26 12.652C26 5.6644 20.3576 0 13.3969 0Z" fill="currentColor"/>
</svg>
