<svg viewBox="0 0 16 16" fill="none" xmlns="http://www.w3.org/2000/svg">
    <path d="M3.00009 5.5L5.25 10.5C4.75 11 3.75915 11.25 3 11.25C2.24085 11.25 1.25 11 0.75 10.5L3.00009 5.5ZM3.00009 5.5L3 4.75M3 4.75H1.75M3 4.75H3.984C4.75009 4.75 5.45688 3.75 6.266 3.75H8M8 3.75V1.75M8 3.75V14.75M8 3.75H9.734C10.5431 3.75 11.2499 4.75 12.016 4.75H13M8 14.75H4.75M8 14.75H11.25M12.9999 5.5L10.75 10.5C11.25 11 12.2409 11.25 13 11.25C13.7591 11.25 14.75 11 15.25 10.5L12.9999 5.5ZM12.9999 5.5L13 4.75M13 4.75H14.25"
          stroke="currentColor" stroke-width="1.5" stroke-linecap="round" stroke-linejoin="round"/>
</svg>
