<svg viewBox="0 0 14 14" fill="none" xmlns="http://www.w3.org/2000/svg">
  <path
      d="M5.37354 9.87498C5.37354 9.18463 4.81391 8.625 4.12354 8.625H2C1.30964 8.625 0.75 9.18464 0.75 9.875V12C0.75 12.6904 1.30965 13.25 2 13.25H4.12354C4.81392 13.25 5.37354 12.6904 5.37354 12.0001V9.87498ZM5.37354 9.87498V9.87896M5.37354 9.87498V9.87896M5.37354 9.87896V9.88294M5.37354 9.87896V9.88294M5.37354 9.88294V9.88692M5.37354 9.88294V9.88692M5.37354 9.88692V9.89091M5.37354 9.88692V9.89091M5.37354 9.89091V9.8949M5.37354 9.89091V9.8949M5.37354 9.8949V9.89889M5.37354 9.8949V9.89889M5.37354 9.89889V9.90288M5.37354 9.89889V9.90288M5.37354 9.90288V9.90688M5.37354 9.90288V9.90688M5.37354 9.90688V9.91087M5.37354 9.90688V9.91087M5.37354 9.91087V9.91487M5.37354 9.91087V9.91487M5.37354 9.91487V9.91887M5.37354 9.91487V9.91887M5.37354 9.91887V9.92287M5.37354 9.91887V9.92287M5.37354 9.92287V9.92687M5.37354 9.92287V9.92687M5.37354 9.92687V9.93088M5.37354 9.92687V9.93088M5.37354 9.93088V9.93488M5.37354 9.93088V9.93488M5.37354 9.93488V9.93889M5.37354 9.93488V9.93889M5.37354 9.93889V9.9429M5.37354 9.93889V9.9429M5.37354 9.9429V9.94691M5.37354 9.9429V9.94691M5.37354 9.94691V9.95093M5.37354 9.94691V9.95093M5.37354 9.95093V9.95494M5.37354 9.95093V9.95494M5.37354 9.95494V9.95896M5.37354 9.95494V9.95896M5.37354 9.95896V9.96298M5.37354 9.95896V9.96298M5.37354 9.96298V9.967M5.37354 9.96298V9.967M5.37354 9.967V9.97102M5.37354 9.967V9.97102M5.37354 9.97102V9.97504M5.37354 9.97102V9.97504M5.37354 9.97504V9.97907M5.37354 9.97504V9.97907M5.37354 9.97907V9.9831M5.37354 9.97907V9.9831M5.37354 9.9831V9.98713M5.37354 9.9831V9.98713M5.37354 9.98713V9.99116M5.37354 9.98713V9.99116M5.37354 9.99116V9.99519M5.37354 9.99116V9.99519M5.37354 9.99519V9.99922M5.37354 9.99519V9.99922M5.37354 9.99922V10.0033M5.37354 9.99922V10.0033M5.37354 10.0033V10.0073M5.37354 10.0033V10.0073M5.37354 10.0073V10.0113M5.37354 10.0073V10.0113M5.37354 10.0113V10.0154M5.37354 10.0113V10.0154M5.37354 10.0154V10.0194M5.37354 10.0154V10.0194M5.37354 10.0194V10.0235M5.37354 10.0194V10.0235M5.37354 10.0235V10.0275M5.37354 10.0235V10.0275M5.37354 10.0275V10.0315M5.37354 10.0275V10.0315M5.37354 10.0315V10.0356M5.37354 10.0315V10.0356M5.37354 10.0356V10.0396M5.37354 10.0356V10.0396M5.37354 10.0396V10.0437M5.37354 10.0396V10.0437M5.37354 10.0437V10.0478M5.37354 10.0437V10.0478M5.37354 10.0478V10.0518M5.37354 10.0478V10.0518M5.37354 10.0518V10.0559M5.37354 10.0518V10.0559M5.37354 10.0559V10.0599M5.37354 10.0559V10.0599M5.37354 10.0599V10.064M5.37354 10.0599V10.064M5.37354 10.064V10.068M5.37354 10.064V10.068M5.37354 10.068V10.0721M5.37354 10.068V10.0721M5.37354 10.0721V10.0762M5.37354 10.0721V10.0762M5.37354 10.0762V10.0802M5.37354 10.0762V10.0802M5.37354 10.0802V10.0843M5.37354 10.0802V10.0843M5.37354 10.0843V10.0884M5.37354 10.0843V10.0884M5.37354 10.0884V10.0924M5.37354 10.0884V10.0924M5.37354 10.0924V10.0965M5.37354 10.0924V10.0965M5.37354 10.0965V10.1006M5.37354 10.0965V10.1006M5.37354 10.1006V10.1047M5.37354 10.1006V10.1047M5.37354 10.1047V10.1087M5.37354 10.1047V10.1087M5.37354 10.1087V10.1128M5.37354 10.1087V10.1128M5.37354 10.1128V10.1169M5.37354 10.1128V10.1169M5.37354 10.1169V10.121M5.37354 10.1169V10.121M5.37354 10.121V10.125M5.37354 10.121V10.125M5.37354 10.125V10.1291M5.37354 10.125V10.1291M5.37354 10.1291V10.1332M5.37354 10.1291V10.1332M5.37354 10.1332V10.1373M5.37354 10.1332V10.1373M5.37354 10.1373V10.1414M5.37354 10.1373V10.1414M5.37354 10.1414V10.1455M5.37354 10.1414V10.1455M5.37354 10.1455V10.1496M5.37354 10.1455V10.1496M5.37354 10.1496V10.1537M5.37354 10.1496V10.1537M5.37354 10.1537V10.1577M5.37354 10.1537V10.1577M5.37354 10.1577V10.1618M5.37354 10.1577V10.1618M5.37354 10.1618V10.1659M5.37354 10.1618V10.1659M5.37354 10.1659V10.17M5.37354 10.1659V10.17M5.37354 10.17V10.1741M5.37354 10.17V10.1741M5.37354 10.1741V10.1782M5.37354 10.1741V10.1782M5.37354 10.1782V10.1823M5.37354 10.1782V10.1823M5.37354 10.1823V10.1864M5.37354 10.1823V10.1864M5.37354 10.1864V10.1905M5.37354 10.1864V10.1905M5.37354 10.1905V10.1946M5.37354 10.1905V10.1946M5.37354 10.1946V10.1987M5.37354 10.1946V10.1987M5.37354 10.1987V10.2028M5.37354 10.1987V10.2028M5.37354 10.2028V10.207M5.37354 10.2028V10.207M5.37354 10.207V10.2111M5.37354 10.207V10.2111M5.37354 10.2111V10.2152M5.37354 10.2111V10.2152M5.37354 10.2152V10.2193M5.37354 10.2152V10.2193M5.37354 10.2193V10.2234M5.37354 10.2193V10.2234M5.37354 10.2234V10.2275M5.37354 10.2234V10.2275M5.37354 10.2275V10.2316M5.37354 10.2275V10.2316M5.37354 10.2316V10.2358M5.37354 10.2316V10.2358M5.37354 10.2358V10.2399M5.37354 10.2358V10.2399M5.37354 10.2399V10.244M5.37354 10.2399V10.244M5.37354 10.244V10.2481M5.37354 10.244V10.2481M5.37354 10.2481V10.2522M5.37354 10.2481V10.2522M5.37354 10.2522V10.2564M5.37354 10.2522V10.2564M5.37354 10.2564V10.2605M5.37354 10.2564V10.2605M5.37354 10.2605V10.2646M5.37354 10.2605V10.2646M5.37354 10.2646V10.2687M5.37354 10.2646V10.2687M5.37354 10.2687V10.2729M5.37354 10.2687V10.2729M5.37354 10.2729V10.277M5.37354 10.2729V10.277M5.37354 10.277V10.2811M5.37354 10.277V10.2811M5.37354 10.2811V10.2853M5.37354 10.2811V10.2853M5.37354 10.2853V10.2894M5.37354 10.2853V10.2894M5.37354 10.2894V10.2935M5.37354 10.2894V10.2935M5.37354 10.2935V10.2977M5.37354 10.2935V10.2977M5.37354 10.2977V10.3018M5.37354 10.2977V10.3018M5.37354 10.3018V10.3059M5.37354 10.3018V10.3059M5.37354 10.3059V10.3101M5.37354 10.3059V10.3101M5.37354 10.3101V10.3142M5.37354 10.3101V10.3142M5.37354 10.3142V10.3183M5.37354 10.3142V10.3183M5.37354 10.3183V10.3225M5.37354 10.3183V10.3225M5.37354 10.3225V10.3266M5.37354 10.3225V10.3266M5.37354 10.3266V10.3308M5.37354 10.3266V10.3308M5.37354 10.3308V10.3349M5.37354 10.3308V10.3349M5.37354 10.3349V10.3391M5.37354 10.3349V10.3391M5.37354 10.3391V10.3432M5.37354 10.3391V10.3432M5.37354 10.3432V10.3474M5.37354 10.3432V10.3474M5.37354 10.3474V10.3515M5.37354 10.3474V10.3515M5.37354 10.3515V10.3557M5.37354 10.3515V10.3557M5.37354 10.3557V10.3598M5.37354 10.3557V10.3598M5.37354 10.3598V10.364M5.37354 10.3598V10.364M5.37354 10.364V10.3681M5.37354 10.364V10.3681M5.37354 10.3681V10.3723M5.37354 10.3681V10.3723M5.37354 10.3723V10.3764M5.37354 10.3723V10.3764M5.37354 10.3764V10.3806M5.37354 10.3764V10.3806M5.37354 10.3806V10.3847M5.37354 10.3806V10.3847M5.37354 10.3847V10.3889M5.37354 10.3847V10.3889M5.37354 10.3889V10.3931M5.37354 10.3889V10.3931M5.37354 10.3931V10.3972M5.37354 10.3931V10.3972M5.37354 10.3972V10.4014M5.37354 10.3972V10.4014M5.37354 10.4014V10.4055M5.37354 10.4014V10.4055M5.37354 10.4055V10.4097M5.37354 10.4055V10.4097M5.37354 10.4097V10.4139M5.37354 10.4097V10.4139M5.37354 10.4139V10.418M5.37354 10.4139V10.418M5.37354 10.418V10.4222M5.37354 10.418V10.4222M5.37354 10.4222V10.4264M5.37354 10.4222V10.4264M5.37354 10.4264V10.4305M5.37354 10.4264V10.4305M5.37354 10.4305V10.4347M5.37354 10.4305V10.4347M5.37354 10.4347V10.4389M5.37354 10.4347V10.4389M5.37354 10.4389V10.443M5.37354 10.4389V10.443M5.37354 10.443V10.4472M5.37354 10.443V10.4472M5.37354 10.4472V10.4514M5.37354 10.4472V10.4514M5.37354 10.4514V10.4556M5.37354 10.4514V10.4556M5.37354 10.4556V10.4597M5.37354 10.4556V10.4597M5.37354 10.4597V10.4639M5.37354 10.4597V10.4639M5.37354 10.4639V10.4681M5.37354 10.4639V10.4681M5.37354 10.4681V10.4723M5.37354 10.4681V10.4723M5.37354 10.4723V10.4764M5.37354 10.4723V10.4764M5.37354 10.4764V10.4806M5.37354 10.4764V10.4806M5.37354 10.4806V10.4848M5.37354 10.4806V10.4848M5.37354 10.4848V10.489M5.37354 10.4848V10.489M5.37354 10.489V10.4931M5.37354 10.489V10.4931M5.37354 10.4931V10.4973M5.37354 10.4931V10.4973M5.37354 10.4973V10.5015M5.37354 10.4973V10.5015M5.37354 10.5015V10.5057M5.37354 10.5015V10.5057M5.37354 10.5057V10.5099M5.37354 10.5057V10.5099M5.37354 10.5099V10.5141M5.37354 10.5099V10.5141M5.37354 10.5141V10.5183M5.37354 10.5141V10.5183M5.37354 10.5183V10.5224M5.37354 10.5183V10.5224M5.37354 10.5224V10.5266M5.37354 10.5224V10.5266M5.37354 10.5266V10.5308M5.37354 10.5266V10.5308M5.37354 10.5308V10.535M5.37354 10.5308V10.535M5.37354 10.535V10.5392M5.37354 10.535V10.5392M5.37354 10.5392V10.5434M5.37354 10.5392V10.5434M5.37354 10.5434V10.5476M5.37354 10.5434V10.5476M5.37354 10.5476V10.5518M5.37354 10.5476V10.5518M5.37354 10.5518V10.556M5.37354 10.5518V10.556M5.37354 10.556V10.5601M5.37354 10.556V10.5601M5.37354 10.5601V10.5643M5.37354 10.5601V10.5643M5.37354 10.5643V10.5685M5.37354 10.5643V10.5685M5.37354 10.5685V10.5727M5.37354 10.5685V10.5727M5.37354 10.5727V10.5769M5.37354 10.5727V10.5769M5.37354 10.5769V10.5811M5.37354 10.5769V10.5811M5.37354 10.5811V10.5853M5.37354 10.5811V10.5853M5.37354 10.5853V10.5895M5.37354 10.5853V10.5895M5.37354 10.5895V10.5937M5.37354 10.5895V10.5937M5.37354 10.5937V10.5979M5.37354 10.5937V10.5979M5.37354 10.5979V10.6021M5.37354 10.5979V10.6021M5.37354 10.6021V10.6063M5.37354 10.6021V10.6063M5.37354 10.6063V10.6105M5.37354 10.6063V10.6105M5.37354 10.6105V10.6147M5.37354 10.6105V10.6147M5.37354 10.6147V10.6189M5.37354 10.6147V10.6189M5.37354 10.6189V10.6231M5.37354 10.6189V10.6231M5.37354 10.6231V10.6273M5.37354 10.6231V10.6273M5.37354 10.6273V10.6315M5.37354 10.6273V10.6315M5.37354 10.6315V10.6357M5.37354 10.6315V10.6357M5.37354 10.6357V10.6399M5.37354 10.6357V10.6399M5.37354 10.6399V10.6441M5.37354 10.6399V10.6441M5.37354 10.6441V10.6483M5.37354 10.6441V10.6483M5.37354 10.6483V10.6525M5.37354 10.6483V10.6525M5.37354 10.6525V10.6567M5.37354 10.6525V10.6567M5.37354 10.6567V10.661M5.37354 10.6567V10.661M5.37354 10.661V10.6652M5.37354 10.661V10.6652M5.37354 10.6652V10.6694M5.37354 10.6652V10.6694M5.37354 10.6694V10.6736M5.37354 10.6694V10.6736M5.37354 10.6736V10.6778M5.37354 10.6736V10.6778M5.37354 10.6778V10.682M5.37354 10.6778V10.682M5.37354 10.682V10.6862M5.37354 10.682V10.6862M5.37354 10.6862V10.6904M5.37354 10.6862V10.6904M5.37354 10.6904V10.6946M5.37354 10.6904V10.6946M5.37354 10.6946V10.6988M5.37354 10.6946V10.6988M5.37354 10.6988V10.7031M5.37354 10.6988V10.7031M5.37354 10.7031V10.7073M5.37354 10.7031V10.7073M5.37354 10.7073V10.7115M5.37354 10.7073V10.7115M5.37354 10.7115V10.7157M5.37354 10.7115V10.7157M5.37354 10.7157V10.7199M5.37354 10.7157V10.7199M5.37354 10.7199V10.7241M5.37354 10.7199V10.7241M5.37354 10.7241V10.7283M5.37354 10.7241V10.7283M5.37354 10.7283V10.7326M5.37354 10.7283V10.7326M5.37354 10.7326V10.7368M5.37354 10.7326V10.7368M5.37354 10.7368V10.741M5.37354 10.7368V10.741M5.37354 10.741V10.7452M5.37354 10.741V10.7452M5.37354 10.7452V10.7494M5.37354 10.7452V10.7494M5.37354 10.7494V10.7536M5.37354 10.7494V10.7536M5.37354 10.7536V10.7579M5.37354 10.7536V10.7579M5.37354 10.7579V10.7621M5.37354 10.7579V10.7621M5.37354 10.7621V10.7663M5.37354 10.7621V10.7663M5.37354 10.7663V10.7705M5.37354 10.7663V10.7705M5.37354 10.7705V10.7747M5.37354 10.7705V10.7747M5.37354 10.7747V10.7789M5.37354 10.7747V10.7789M5.37354 10.7789V10.7832M5.37354 10.7789V10.7832M5.37354 10.7832V10.7874M5.37354 10.7832V10.7874M5.37354 10.7874V10.7916M5.37354 10.7874V10.7916M5.37354 10.7916V10.7958M5.37354 10.7916V10.7958M5.37354 10.7958V10.8M5.37354 10.7958V10.8M5.37354 10.8V10.8043M5.37354 10.8V10.8043M5.37354 10.8043V10.8085M5.37354 10.8043V10.8085M5.37354 10.8085V10.8127M5.37354 10.8085V10.8127M5.37354 10.8127V10.8169M5.37354 10.8127V10.8169M5.37354 10.8169V10.8212M5.37354 10.8169V10.8212M5.37354 10.8212V10.8254M5.37354 10.8212V10.8254M5.37354 10.8254V10.8296M5.37354 10.8254V10.8296M5.37354 10.8296V10.8338M5.37354 10.8296V10.8338M5.37354 10.8338V10.838M5.37354 10.8338V10.838M5.37354 10.838V10.8423M5.37354 10.838V10.8423M5.37354 10.8423V10.8465M5.37354 10.8423V10.8465M5.37354 10.8465V10.8507M5.37354 10.8465V10.8507M5.37354 10.8507V10.8549M5.37354 10.8507V10.8549M5.37354 10.8549V10.8592M5.37354 10.8549V10.8592M5.37354 10.8592V10.8634M5.37354 10.8592V10.8634M5.37354 10.8634V10.8676M5.37354 10.8634V10.8676M5.37354 10.8676V10.8718M5.37354 10.8676V10.8718M5.37354 10.8718V10.8761M5.37354 10.8718V10.8761M5.37354 10.8761V10.8803M5.37354 10.8761V10.8803M5.37354 10.8803V10.8845M5.37354 10.8803V10.8845M5.37354 10.8845V10.8887M5.37354 10.8845V10.8887M5.37354 10.8887V10.893M5.37354 10.8887V10.893M5.37354 10.893V10.8972M5.37354 10.893V10.8972M5.37354 10.8972V10.9014M5.37354 10.8972V10.9014M5.37354 10.9014V10.9056M5.37354 10.9014V10.9056M5.37354 10.9056V10.9099M5.37354 10.9056V10.9099M5.37354 10.9099V10.9141M5.37354 10.9099V10.9141M5.37354 10.9141V10.9183M5.37354 10.9141V10.9183M5.37354 10.9183V10.9225M5.37354 10.9183V10.9225M5.37354 10.9225V10.9268M5.37354 10.9225V10.9268M5.37354 10.9268V10.931M5.37354 10.9268V10.931M5.37354 10.931V10.9352M5.37354 10.931V10.9352M5.37354 10.9352V10.9395M5.37354 10.9352V10.9395M5.37354 10.9395V10.9437M5.37354 10.9395V10.9437M5.37354 10.9437V10.9479M5.37354 10.9437V10.9479M5.37354 10.9479V10.9521M5.37354 10.9479V10.9521M5.37354 10.9521V10.9564M5.37354 10.9521V10.9564M5.37354 10.9564V10.9606M5.37354 10.9564V10.9606M5.37354 10.9606V10.9648M5.37354 10.9606V10.9648M5.37354 10.9648V10.969M5.37354 10.9648V10.969M5.37354 10.969V10.9733M5.37354 10.969V10.9733M5.37354 10.9733V10.9775M5.37354 10.9733V10.9775M5.37354 10.9775V10.9817M5.37354 10.9775V10.9817M5.37354 10.9817V10.9859M5.37354 10.9817V10.9859M5.37354 10.9859V10.9902M5.37354 10.9859V10.9902M5.37354 10.9902V10.9944M5.37354 10.9902V10.9944M5.37354 10.9944V10.9986M5.37354 10.9944V10.9986M5.37354 10.9986V11.0029M5.37354 10.9986V11.0029M5.37354 11.0029V11.0071M5.37354 11.0029V11.0071M5.37354 11.0071V11.0113M5.37354 11.0071V11.0113M5.37354 11.0113V11.0155M5.37354 11.0113V11.0155M5.37354 11.0155V11.0198M5.37354 11.0155V11.0198M5.37354 11.0198V11.024M5.37354 11.0198V11.024M5.37354 11.024V11.0282M5.37354 11.024V11.0282M5.37354 11.0282V11.0324M5.37354 11.0282V11.0324M5.37354 11.0324V11.0367M5.37354 11.0324V11.0367M5.37354 11.0367V11.0409M5.37354 11.0367V11.0409M5.37354 11.0409V11.0451M5.37354 11.0409V11.0451M5.37354 11.0451V11.0493M5.37354 11.0451V11.0493M5.37354 11.0493V11.0536M5.37354 11.0493V11.0536M5.37354 11.0536V11.0578M5.37354 11.0536V11.0578M5.37354 11.0578V11.062M5.37354 11.0578V11.062M5.37354 11.062V11.0663M5.37354 11.062V11.0663M5.37354 11.0663V11.0705M5.37354 11.0663V11.0705M5.37354 11.0705V11.0747M5.37354 11.0705V11.0747M5.37354 11.0747V11.0789M5.37354 11.0747V11.0789M5.37354 11.0789V11.0832M5.37354 11.0789V11.0832M5.37354 11.0832V11.0874M5.37354 11.0832V11.0874M5.37354 11.0874V11.0916M5.37354 11.0874V11.0916M5.37354 11.0916V11.0958M5.37354 11.0916V11.0958M5.37354 11.0958V11.1001M5.37354 11.0958V11.1001M5.37354 11.1001V11.1043M5.37354 11.1001V11.1043M5.37354 11.1043V11.1085M5.37354 11.1043V11.1085M5.37354 11.1085V11.1127M5.37354 11.1085V11.1127M5.37354 11.1127V11.1169M5.37354 11.1127V11.1169M5.37354 11.1169V11.1212M5.37354 11.1169V11.1212M5.37354 11.1212V11.1254M5.37354 11.1212V11.1254M5.37354 11.1254V11.1296M5.37354 11.1254V11.1296M5.37354 11.1296V11.1338M5.37354 11.1296V11.1338M5.37354 11.1338V11.1381M5.37354 11.1338V11.1381M5.37354 11.1381V11.1423M5.37354 11.1381V11.1423M5.37354 11.1423V11.1465M5.37354 11.1423V11.1465M5.37354 11.1465V11.1507M5.37354 11.1465V11.1507M5.37354 11.1507V11.1549M5.37354 11.1507V11.1549M5.37354 11.1549V11.1592M5.37354 11.1549V11.1592M5.37354 11.1592V11.1634M5.37354 11.1592V11.1634M5.37354 11.1634V11.1676M5.37354 11.1634V11.1676M5.37354 11.1676V11.1718M5.37354 11.1676V11.1718M5.37354 11.1718V11.176M5.37354 11.1718V11.176M5.37354 11.176V11.1803M5.37354 11.176V11.1803M5.37354 11.1803V11.1845M5.37354 11.1803V11.1845M5.37354 11.1845V11.1887M5.37354 11.1845V11.1887M5.37354 11.1887V11.1929M5.37354 11.1887V11.1929M5.37354 11.1929V11.1971M5.37354 11.1929V11.1971M5.37354 11.1971V11.2014M5.37354 11.1971V11.2014M5.37354 11.2014V11.2056M5.37354 11.2014V11.2056M5.37354 11.2056V11.2098M5.37354 11.2056V11.2098M5.37354 11.2098V11.214M5.37354 11.2098V11.214M5.37354 11.214V11.2182M5.37354 11.214V11.2182M5.37354 11.2182V11.2224M5.37354 11.2182V11.2224M5.37354 11.2224V11.2267M5.37354 11.2224V11.2267M5.37354 11.2267V11.2309M5.37354 11.2267V11.2309M5.37354 11.2309V11.2351M5.37354 11.2309V11.2351M5.37354 11.2351V11.2393M5.37354 11.2351V11.2393M5.37354 11.2393V11.2435M5.37354 11.2393V11.2435M5.37354 11.2435V11.2477M5.37354 11.2435V11.2477M5.37354 11.2477V11.2519M5.37354 11.2477V11.2519M5.37354 11.2519V11.2561M5.37354 11.2519V11.2561M5.37354 11.2561V11.2604M5.37354 11.2561V11.2604M5.37354 11.2604V11.2646M5.37354 11.2604V11.2646M5.37354 11.2646V11.2688M5.37354 11.2646V11.2688M5.37354 11.2688V11.273M5.37354 11.2688V11.273M5.37354 11.273V11.2772M5.37354 11.273V11.2772M5.37354 11.2772V11.2814M5.37354 11.2772V11.2814M5.37354 11.2814V11.2856M5.37354 11.2814V11.2856M5.37354 11.2856V11.2898M5.37354 11.2856V11.2898M5.37354 11.2898V11.294M5.37354 11.2898V11.294M5.37354 11.294V11.2982M5.37354 11.294V11.2982M5.37354 11.2982V11.3025M5.37354 11.2982V11.3025M5.37354 11.3025V11.3067M5.37354 11.3025V11.3067M5.37354 11.3067V11.3109M5.37354 11.3067V11.3109M5.37354 11.3109V11.3151M5.37354 11.3109V11.3151M5.37354 11.3151V11.3193M5.37354 11.3151V11.3193M5.37354 11.3193V11.3235M5.37354 11.3193V11.3235M5.37354 11.3235V11.3277M5.37354 11.3235V11.3277M5.37354 11.3277V11.3319M5.37354 11.3277V11.3319M5.37354 11.3319V11.3361M5.37354 11.3319V11.3361M5.37354 11.3361V11.3403M5.37354 11.3361V11.3403M5.37354 11.3403V11.3445M5.37354 11.3403V11.3445M5.37354 11.3445V11.3487M5.37354 11.3445V11.3487M5.37354 11.3487V11.3529M5.37354 11.3487V11.3529M5.37354 11.3529V11.3571M5.37354 11.3529V11.3571M5.37354 11.3571V11.3613M5.37354 11.3571V11.3613M5.37354 11.3613V11.3655M5.37354 11.3613V11.3655M5.37354 11.3655V11.3697M5.37354 11.3655V11.3697M5.37354 11.3697V11.3739M5.37354 11.3697V11.3739M5.37354 11.3739V11.3781M5.37354 11.3739V11.3781M5.37354 11.3781V11.3823M5.37354 11.3781V11.3823M5.37354 11.3823V11.3865M5.37354 11.3823V11.3865M5.37354 11.3865V11.3907M5.37354 11.3865V11.3907M5.37354 11.3907V11.3948M5.37354 11.3907V11.3948M5.37354 11.3948V11.399M5.37354 11.3948V11.399M5.37354 11.399V11.4032M5.37354 11.399V11.4032M5.37354 11.4032V11.4074M5.37354 11.4032V11.4074M5.37354 11.4074V11.4116M5.37354 11.4074V11.4116M5.37354 11.4116V11.4158M5.37354 11.4116V11.4158M5.37354 11.4158V11.42M5.37354 11.4158V11.42M5.37354 11.42V11.4242M5.37354 11.42V11.4242M5.37354 11.4242V11.4284M5.37354 11.4242V11.4284M5.37354 11.4284V11.4326M5.37354 11.4284V11.4326M5.37354 11.4326V11.4367M5.37354 11.4326V11.4367M5.37354 11.4367V11.4409M5.37354 11.4367V11.4409M5.37354 11.4409V11.4451M5.37354 11.4409V11.4451M5.37354 11.4451V11.4493M5.37354 11.4451V11.4493M5.37354 11.4493V11.4535M5.37354 11.4493V11.4535M5.37354 11.4535V11.4577M5.37354 11.4535V11.4577M5.37354 11.4577V11.4618M5.37354 11.4577V11.4618M5.37354 11.4618V11.466M5.37354 11.4618V11.466M5.37354 11.466V11.4702M5.37354 11.466V11.4702M5.37354 11.4702V11.4744M5.37354 11.4702V11.4744M5.37354 11.4744V11.4786M5.37354 11.4744V11.4786M5.37354 11.4786V11.4827M5.37354 11.4786V11.4827M5.37354 11.4827V11.4869M5.37354 11.4827V11.4869M5.37354 11.4869V11.4911M5.37354 11.4869V11.4911M5.37354 11.4911V11.4953M5.37354 11.4911V11.4953M5.37354 11.4953V11.4994M5.37354 11.4953V11.4994M5.37354 11.4994V11.5036M5.37354 11.4994V11.5036M5.37354 11.5036V11.5078M5.37354 11.5036V11.5078M5.37354 11.5078V11.512M5.37354 11.5078V11.512M5.37354 11.512V11.5161V11.512ZM4.12354 0.75C4.81391 0.75 5.37354 1.30963 5.37354 1.99998V2.00396V2.00794V2.01192V2.01591V2.0199V2.02389V2.02788V2.03188V2.03587V2.03987V2.04387V2.04787V2.05187V2.05588V2.05988V2.06389V2.0679V2.07191V2.07593V2.07994V2.08396V2.08798V2.092V2.09602V2.10004V2.10407V2.1081V2.11213V2.11616V2.12019V2.12422V2.12826V2.13229V2.13633V2.14037V2.14441V2.14846V2.1525V2.15655V2.1606V2.16465V2.1687V2.17275V2.17681V2.18086V2.18492V2.18898V2.19304V2.1971V2.20116V2.20523V2.2093V2.21336V2.21743V2.2215V2.22558V2.22965V2.23373V2.2378V2.24188V2.24596V2.25004V2.25413V2.25821V2.26229V2.26638V2.27047V2.27456V2.27865V2.28274V2.28684V2.29093V2.29503V2.29913V2.30323V2.30733V2.31143V2.31553V2.31964V2.32374V2.32785V2.33196V2.33607V2.34018V2.34429V2.3484V2.35252V2.35663V2.36075V2.36487V2.36899V2.37311V2.37723V2.38135V2.38548V2.38961V2.39373V2.39786V2.40199V2.40612V2.41025V2.41438V2.41852V2.42265V2.42679V2.43093V2.43506V2.4392V2.44334V2.44749V2.45163V2.45577V2.45992V2.46406V2.46821V2.47236V2.47651V2.48066V2.48481V2.48896V2.49311V2.49727V2.50142V2.50558V2.50974V2.5139V2.51805V2.52221V2.52638V2.53054V2.5347V2.53887V2.54303V2.5472V2.55136V2.55553V2.5597V2.56387V2.56804V2.57221V2.57638V2.58055V2.58473V2.5889V2.59308V2.59726V2.60143V2.60561V2.60979V2.61397V2.61815V2.62233V2.62651V2.6307V2.63488V2.63906V2.64325V2.64744V2.65162V2.65581V2.66V2.66419V2.66838V2.67257V2.67676V2.68095V2.68514V2.68934V2.69353V2.69772V2.70192V2.70612V2.71031V2.71451V2.71871V2.72291V2.72711V2.73131V2.73551V2.73971V2.74391V2.74811V2.75231V2.75652V2.76072V2.76492V2.76913V2.77334V2.77754V2.78175V2.78596V2.79016V2.79437V2.79858V2.80279V2.807V2.81121V2.81542V2.81963V2.82384V2.82805V2.83227V2.83648V2.84069V2.84491V2.84912V2.85334V2.85755V2.86177V2.86598V2.8702V2.87442V2.87863V2.88285V2.88707V2.89129V2.89551V2.89972V2.90394V2.90816V2.91238V2.9166V2.92082V2.92504V2.92927V2.93349V2.93771V2.94193V2.94615V2.95037V2.9546V2.95882V2.96304V2.96727V2.97149V2.97571V2.97994V2.98416V2.98839V2.99261V2.99684V3.00106V3.00529V3.00951V3.01374V3.01796V3.02219V3.02641V3.03064V3.03487V3.03909V3.04332V3.04755V3.05177V3.056V3.06023V3.06445V3.06868V3.07291V3.07713V3.08136V3.08559V3.08981V3.09404V3.09827V3.1025V3.10672V3.11095V3.11518V3.1194V3.12363V3.12786V3.13208V3.13631V3.14054V3.14476V3.14899V3.15322V3.15744V3.16167V3.1659V3.17012V3.17435V3.17858V3.1828V3.18703V3.19125V3.19548V3.1997V3.20393V3.20815V3.21238V3.2166V3.22083V3.22505V3.22928V3.2335V3.23772V3.24195V3.24617V3.25039V3.25462V3.25884V3.26306V3.26728V3.2715V3.27573V3.27995V3.28417V3.28839V3.29261V3.29683V3.30105V3.30527V3.30949V3.3137V3.31792V3.32214V3.32636V3.33057V3.33479V3.33901V3.34322V3.34744V3.35165V3.35587V3.36008V3.3643V3.36851V3.37272V3.37694V3.38115V3.38536V3.38957V3.39378V3.39799V3.4022V3.40641V3.41062V3.41483V3.41904V3.42324V3.42745V3.43166V3.43586V3.44007V3.44427V3.44847V3.45268V3.45688V3.46108V3.46528V3.46949V3.47369V3.47789V3.48208V3.48628V3.49048V3.49468V3.49888V3.50307V3.50727V3.51146V3.51566V3.51985V3.52404V3.52823V3.53242V3.53661V3.5408V3.54499V3.54918V3.55337V3.55756V3.56174V3.56593V3.57011V3.5743V3.57848V3.58266V3.58684V3.59102V3.5952V3.59938V3.60356V3.60774V3.61191V3.61609V3.62026V3.62444V3.62861V3.63278V3.63695V3.64112V3.64529V3.64946V3.65363V3.6578V3.66196V3.66613V3.67029V3.67445V3.67862V3.68278V3.68694V3.6911V3.69526V3.69941V3.70357V3.70772V3.71188V3.71603V3.72018V3.72434V3.72849V3.73263V3.73678V3.74093V3.74508V3.74922V3.75336V3.75751V3.76165V3.76579V3.76993V3.77407V3.7782V3.78234V3.78648V3.79061V3.79474V3.79887V3.803V3.80713V3.81126V3.81539V3.81951V3.82364V3.82776V3.83188V3.836V3.84012V3.84424V3.84836V3.85248V3.85659V3.8607V3.86482V3.86893V3.87304V3.87715V3.88125V3.88536V3.88946V3.89357V3.89767V3.90177V3.90587V3.90997V3.91406V3.91816V3.92225V3.92634V3.93043V3.93452V3.93861V3.9427V3.94679V3.95087V3.95495V3.95903V3.96311V3.96719V3.97127V3.97534V3.97942V3.98349V3.98756V3.99163V3.9957V3.99977V4.00383V4.00789V4.01196V4.01602V4.02008V4.02413V4.02819V4.03224V4.0363V4.04035V4.0444V4.04845V4.05249V4.05654V4.06058V4.06462V4.06866V4.0727V4.07674V4.08077V4.08481V4.08884V4.09287V4.0969V4.10093V4.10495V4.10898V4.113V4.11702V4.12104V4.12505C5.37354 4.81538 4.81392 5.375 4.12354 5.375H2C1.30965 5.375 0.75 4.81535 0.75 4.125V2C0.75 1.30964 1.30964 0.75 2 0.75H4.12354ZM11.9985 0.75C12.6889 0.75 13.2485 1.30963 13.2485 1.99998V2.00396V2.00794V2.01192V2.01591V2.0199V2.02389V2.02788V2.03188V2.03587V2.03987V2.04387V2.04787V2.05187V2.05588V2.05988V2.06389V2.0679V2.07191V2.07593V2.07994V2.08396V2.08798V2.092V2.09602V2.10004V2.10407V2.1081V2.11213V2.11616V2.12019V2.12422V2.12826V2.13229V2.13633V2.14037V2.14441V2.14846V2.1525V2.15655V2.1606V2.16465V2.1687V2.17275V2.17681V2.18086V2.18492V2.18898V2.19304V2.1971V2.20116V2.20523V2.2093V2.21336V2.21743V2.2215V2.22558V2.22965V2.23373V2.2378V2.24188V2.24596V2.25004V2.25413V2.25821V2.26229V2.26638V2.27047V2.27456V2.27865V2.28274V2.28684V2.29093V2.29503V2.29913V2.30323V2.30733V2.31143V2.31553V2.31964V2.32374V2.32785V2.33196V2.33607V2.34018V2.34429V2.3484V2.35252V2.35663V2.36075V2.36487V2.36899V2.37311V2.37723V2.38135V2.38548V2.38961V2.39373V2.39786V2.40199V2.40612V2.41025V2.41438V2.41852V2.42265V2.42679V2.43093V2.43506V2.4392V2.44334V2.44749V2.45163V2.45577V2.45992V2.46406V2.46821V2.47236V2.47651V2.48066V2.48481V2.48896V2.49311V2.49727V2.50142V2.50558V2.50974V2.5139V2.51805V2.52221V2.52638V2.53054V2.5347V2.53887V2.54303V2.5472V2.55136V2.55553V2.5597V2.56387V2.56804V2.57221V2.57638V2.58055V2.58473V2.5889V2.59308V2.59726V2.60143V2.60561V2.60979V2.61397V2.61815V2.62233V2.62651V2.6307V2.63488V2.63906V2.64325V2.64744V2.65162V2.65581V2.66V2.66419V2.66838V2.67257V2.67676V2.68095V2.68514V2.68934V2.69353V2.69772V2.70192V2.70612V2.71031V2.71451V2.71871V2.72291V2.72711V2.73131V2.73551V2.73971V2.74391V2.74811V2.75231V2.75652V2.76072V2.76492V2.76913V2.77334V2.77754V2.78175V2.78596V2.79016V2.79437V2.79858V2.80279V2.807V2.81121V2.81542V2.81963V2.82384V2.82805V2.83227V2.83648V2.84069V2.84491V2.84912V2.85334V2.85755V2.86177V2.86598V2.8702V2.87442V2.87863V2.88285V2.88707V2.89129V2.89551V2.89972V2.90394V2.90816V2.91238V2.9166V2.92082V2.92504V2.92927V2.93349V2.93771V2.94193V2.94615V2.95037V2.9546V2.95882V2.96304V2.96727V2.97149V2.97571V2.97994V2.98416V2.98839V2.99261V2.99684V3.00106V3.00529V3.00951V3.01374V3.01796V3.02219V3.02641V3.03064V3.03487V3.03909V3.04332V3.04755V3.05177V3.056V3.06023V3.06445V3.06868V3.07291V3.07713V3.08136V3.08559V3.08981V3.09404V3.09827V3.1025V3.10672V3.11095V3.11518V3.1194V3.12363V3.12786V3.13208V3.13631V3.14054V3.14476V3.14899V3.15322V3.15744V3.16167V3.1659V3.17012V3.17435V3.17858V3.1828V3.18703V3.19125V3.19548V3.1997V3.20393V3.20815V3.21238V3.2166V3.22083V3.22505V3.22928V3.2335V3.23772V3.24195V3.24617V3.25039V3.25462V3.25884V3.26306V3.26728V3.2715V3.27573V3.27995V3.28417V3.28839V3.29261V3.29683V3.30105V3.30527V3.30949V3.3137V3.31792V3.32214V3.32636V3.33057V3.33479V3.33901V3.34322V3.34744V3.35165V3.35587V3.36008V3.3643V3.36851V3.37272V3.37694V3.38115V3.38536V3.38957V3.39378V3.39799V3.4022V3.40641V3.41062V3.41483V3.41904V3.42324V3.42745V3.43166V3.43586V3.44007V3.44427V3.44847V3.45268V3.45688V3.46108V3.46528V3.46949V3.47369V3.47789V3.48208V3.48628V3.49048V3.49468V3.49888V3.50307V3.50727V3.51146V3.51566V3.51985V3.52404V3.52823V3.53242V3.53661V3.5408V3.54499V3.54918V3.55337V3.55756V3.56174V3.56593V3.57011V3.5743V3.57848V3.58266V3.58684V3.59102V3.5952V3.59938V3.60356V3.60774V3.61191V3.61609V3.62026V3.62444V3.62861V3.63278V3.63695V3.64112V3.64529V3.64946V3.65363V3.6578V3.66196V3.66613V3.67029V3.67445V3.67862V3.68278V3.68694V3.6911V3.69526V3.69941V3.70357V3.70772V3.71188V3.71603V3.72018V3.72434V3.72849V3.73263V3.73678V3.74093V3.74508V3.74922V3.75336V3.75751V3.76165V3.76579V3.76993V3.77407V3.7782V3.78234V3.78648V3.79061V3.79474V3.79887V3.803V3.80713V3.81126V3.81539V3.81951V3.82364V3.82776V3.83188V3.836V3.84012V3.84424V3.84836V3.85248V3.85659V3.8607V3.86482V3.86893V3.87304V3.87715V3.88125V3.88536V3.88946V3.89357V3.89767V3.90177V3.90587V3.90997V3.91406V3.91816V3.92225V3.92634V3.93043V3.93452V3.93861V3.9427V3.94679V3.95087V3.95495V3.95903V3.96311V3.96719V3.97127V3.97534V3.97942V3.98349V3.98756V3.99163V3.9957V3.99977V4.00383V4.00789V4.01196V4.01602V4.02008V4.02413V4.02819V4.03224V4.0363V4.04035V4.0444V4.04845V4.05249V4.05654V4.06058V4.06462V4.06866V4.0727V4.07674V4.08077V4.08481V4.08884V4.09287V4.0969V4.10093V4.10495V4.10898V4.113V4.11702V4.12104V4.12505C13.2485 4.81538 12.6889 5.375 11.9985 5.375H9.875C9.18465 5.375 8.625 4.81535 8.625 4.125V2C8.625 1.30964 9.18464 0.75 9.875 0.75H11.9985ZM11.9985 8.625C12.6889 8.625 13.2485 9.18463 13.2485 9.87498V9.87896V9.88294V9.88692V9.89091V9.8949V9.89889V9.90288V9.90688V9.91087V9.91487V9.91887V9.92287V9.92687V9.93088V9.93488V9.93889V9.9429V9.94691V9.95093V9.95494V9.95896V9.96298V9.967V9.97102V9.97504V9.97907V9.9831V9.98713V9.99116V9.99519V9.99922V10.0033V10.0073V10.0113V10.0154V10.0194V10.0235V10.0275V10.0315V10.0356V10.0396V10.0437V10.0478V10.0518V10.0559V10.0599V10.064V10.068V10.0721V10.0762V10.0802V10.0843V10.0884V10.0924V10.0965V10.1006V10.1047V10.1087V10.1128V10.1169V10.121V10.125V10.1291V10.1332V10.1373V10.1414V10.1455V10.1496V10.1537V10.1577V10.1618V10.1659V10.17V10.1741V10.1782V10.1823V10.1864V10.1905V10.1946V10.1987V10.2028V10.207V10.2111V10.2152V10.2193V10.2234V10.2275V10.2316V10.2358V10.2399V10.244V10.2481V10.2522V10.2564V10.2605V10.2646V10.2687V10.2729V10.277V10.2811V10.2853V10.2894V10.2935V10.2977V10.3018V10.3059V10.3101V10.3142V10.3183V10.3225V10.3266V10.3308V10.3349V10.3391V10.3432V10.3474V10.3515V10.3557V10.3598V10.364V10.3681V10.3723V10.3764V10.3806V10.3847V10.3889V10.3931V10.3972V10.4014V10.4055V10.4097V10.4139V10.418V10.4222V10.4264V10.4305V10.4347V10.4389V10.443V10.4472V10.4514V10.4556V10.4597V10.4639V10.4681V10.4723V10.4764V10.4806V10.4848V10.489V10.4931V10.4973V10.5015V10.5057V10.5099V10.5141V10.5183V10.5224V10.5266V10.5308V10.535V10.5392V10.5434V10.5476V10.5518V10.556V10.5601V10.5643V10.5685V10.5727V10.5769V10.5811V10.5853V10.5895V10.5937V10.5979V10.6021V10.6063V10.6105V10.6147V10.6189V10.6231V10.6273V10.6315V10.6357V10.6399V10.6441V10.6483V10.6525V10.6567V10.661V10.6652V10.6694V10.6736V10.6778V10.682V10.6862V10.6904V10.6946V10.6988V10.7031V10.7073V10.7115V10.7157V10.7199V10.7241V10.7283V10.7326V10.7368V10.741V10.7452V10.7494V10.7536V10.7579V10.7621V10.7663V10.7705V10.7747V10.7789V10.7832V10.7874V10.7916V10.7958V10.8V10.8043V10.8085V10.8127V10.8169V10.8212V10.8254V10.8296V10.8338V10.838V10.8423V10.8465V10.8507V10.8549V10.8592V10.8634V10.8676V10.8718V10.8761V10.8803V10.8845V10.8887V10.893V10.8972V10.9014V10.9056V10.9099V10.9141V10.9183V10.9225V10.9268V10.931V10.9352V10.9395V10.9437V10.9479V10.9521V10.9564V10.9606V10.9648V10.969V10.9733V10.9775V10.9817V10.9859V10.9902V10.9944V10.9986V11.0029V11.0071V11.0113V11.0155V11.0198V11.024V11.0282V11.0324V11.0367V11.0409V11.0451V11.0493V11.0536V11.0578V11.062V11.0663V11.0705V11.0747V11.0789V11.0832V11.0874V11.0916V11.0958V11.1001V11.1043V11.1085V11.1127V11.1169V11.1212V11.1254V11.1296V11.1338V11.1381V11.1423V11.1465V11.1507V11.1549V11.1592V11.1634V11.1676V11.1718V11.176V11.1803V11.1845V11.1887V11.1929V11.1971V11.2014V11.2056V11.2098V11.214V11.2182V11.2224V11.2267V11.2309V11.2351V11.2393V11.2435V11.2477V11.2519V11.2561V11.2604V11.2646V11.2688V11.273V11.2772V11.2814V11.2856V11.2898V11.294V11.2982V11.3025V11.3067V11.3109V11.3151V11.3193V11.3235V11.3277V11.3319V11.3361V11.3403V11.3445V11.3487V11.3529V11.3571V11.3613V11.3655V11.3697V11.3739V11.3781V11.3823V11.3865V11.3907V11.3948V11.399V11.4032V11.4074V11.4116V11.4158V11.42V11.4242V11.4284V11.4326V11.4367V11.4409V11.4451V11.4493V11.4535V11.4577V11.4618V11.466V11.4702V11.4744V11.4786V11.4827V11.4869V11.4911V11.4953V11.4994V11.5036V11.5078V11.512V11.5161V11.5203V11.5245V11.5286V11.5328V11.537V11.5411V11.5453V11.5495V11.5536V11.5578V11.5619V11.5661V11.5703V11.5744V11.5786V11.5827V11.5869V11.591V11.5952V11.5993V11.6035V11.6076V11.6118V11.6159V11.6201V11.6242V11.6284V11.6325V11.6366V11.6408V11.6449V11.6491V11.6532V11.6573V11.6615V11.6656V11.6697V11.6739V11.678V11.6821V11.6863V11.6904V11.6945V11.6986V11.7028V11.7069V11.711V11.7151V11.7192V11.7234V11.7275V11.7316V11.7357V11.7398V11.7439V11.748V11.7521V11.7563V11.7604V11.7645V11.7686V11.7727V11.7768V11.7809V11.785V11.7891V11.7932V11.7973V11.8013V11.8054V11.8095V11.8136V11.8177V11.8218V11.8259V11.83V11.834V11.8381V11.8422V11.8463V11.8503V11.8544V11.8585V11.8626V11.8666V11.8707V11.8748V11.8788V11.8829V11.887V11.891V11.8951V11.8991V11.9032V11.9072V11.9113V11.9153V11.9194V11.9234V11.9275V11.9315V11.9356V11.9396V11.9437V11.9477V11.9517V11.9558V11.9598V11.9638V11.9679V11.9719V11.9759V11.98V11.984V11.988V11.992V11.996V12.0001C13.2485 12.6904 12.6889 13.25 11.9985 13.25H9.875C9.18465 13.25 8.625 12.6904 8.625 12V9.875C8.625 9.18464 9.18464 8.625 9.875 8.625H11.9985Z"
      stroke="currentColor" stroke-width="1.5"/>
</svg>
