<svg width="20" height="20" viewBox="0 0 20 20" fill="none" xmlns="http://www.w3.org/2000/svg">
<path d="M10.0083 18C14.3839 18 18.0083 14.3756 18.0083 10C18.0083 5.62435 14.3756 2 10 2C5.62436 2 2 5.62435 2 10C2 14.3756 5.63261 18 10.0083 18ZM10.0083 16.58C6.35913 16.58 3.43653 13.6491 3.43653 10C3.43653 6.35088 6.35088 3.42002 10 3.42002C13.6491 3.42002 16.58 6.35088 16.5882 10C16.5965 13.6491 13.6574 16.58 10.0083 16.58ZM9.99174 11.3705C10.388 11.3705 10.6109 11.1476 10.6275 10.7265L10.7348 6.73065C10.7513 6.3096 10.4211 6.00413 9.99174 6.00413C9.54592 6.00413 9.2322 6.30134 9.24871 6.72239L9.34778 10.7265C9.36429 11.1476 9.5872 11.3705 9.99174 11.3705ZM9.99174 13.9298C10.4623 13.9298 10.8669 13.5666 10.8669 13.1042C10.8669 12.6336 10.4706 12.2704 9.99174 12.2704C9.52116 12.2704 9.12487 12.6336 9.12487 13.1042C9.12487 13.5583 9.52941 13.9298 9.99174 13.9298Z" fill="#FFCC00"/>
</svg>
